# xmcd
#
# Track frame offsets: 
#        150
#        10747
#        44522
#        52474
#        53531
#        83853
#        99246
#        106806
#        125520
#        129314
#        141338
#        169571
#        210262
#        251761
#        267807
#        277365
#
# Disc length: 3913 seconds
#
# Revision: 3
# Processed by: cddbd v1.5.2PL0 Copyright (c) Steve Scherf et al.
# Submitted via: ExactAudioCopy v1.0b3
#
DISCID=e20f4710
DTITLE=Zim Ngqawana - Vadzimu
DYEAR=2003
DGENRE=Jazz
TTITLE0=Satire - Umthakathi
TTITLE1=Satire - Kubi
TTITLE2=Satire - Gumboot Dance
TTITLE3=Satire - Interlude
TTITLE4=Satire - Amagoduka Part 3
TTITLE5=Diaspora - Long Waltz to Freedom
TTITLE6=Diaspora - Zanusi
TTITLE7=Diaspora - Mazambique
TTITLE8=Diaspora - Zimzim
TTITLE9=Diaspora - Dirge
TTITLE10=Liberation Suite - Tafelberg
TTITLE11=Liberation Suite - Unamaqhinga Na
TTITLE12=Liberation Suite - Anthem
TTITLE13=Nocturnes - Umoya
TTITLE14=Nocturnes - Vadzimu
TTITLE15=Nocturnes - Thula Sizwe
EXTD=Zim Ngqawana - Saxophones, Flutes, Harmonica, Melodica, Pioano n 
EXTD=14, 15, 16\n\nTrumpet - Marcus Wyatt\nTrombone - Bheki Mbatha\nDo
EXTD=uble Bass - Herbie Tsoaeli\nHarp - Merle Thomson\nViola - Elizabe
EXTD=th Rennie\nPiano - Andile Yenana\nDrums - Lulu Gontsana, Kesivan 
EXTD=Naidoo\nPercussion - Basi Mahlasela, Tlale Makhene, Gugu Ngwenya,
EXTD=Monna Mashinini, Thebe Motlhakeng\n\nVocals:\nLead - Zim Ngqawan
EXTD=a\nChorus - Berbie Tsoaeli, Andile Yenana, Zim Ngqawana\n\nStory 
EXTD=to Amagoduka narrated by Bheki Khoza
EXTT0=
EXTT1=
EXTT2=
EXTT3=
EXTT4=
EXTT5=
EXTT6=
EXTT7=
EXTT8=
EXTT9=
EXTT10=
EXTT11=
EXTT12=
EXTT13=
EXTT14=
EXTT15=
PLAYORDER=
